<svg width="77" height="74" viewBox="0 0 77 74" fill="none" xmlns="http://www.w3.org/2000/svg">
<path d="M66.6562 17.1199C72.179 17.1199 76.1025 12.2197 71.7891 8.77058C70.0819 7.40546 67.9495 6.13961 65.4301 5.0143C58.2422 1.8037 48.4933 3.42796e-07 38.3281 0C28.1628 -3.42796e-07 18.4139 1.80369 11.226 5.01429C8.70667 6.13961 6.57426 7.40545 4.86705 8.77058C0.553645 12.2197 4.47715 17.1199 10 17.1199L38.3281 17.1199H66.6562Z" fill="#D7A367"/>
<rect y="40.1167" width="76.6562" height="11.7539" rx="5.87697" fill="#D7A367"/>
<rect x="0.255524" y="26.3186" width="76.6562" height="10.9874" rx="5.49369" fill="#9A2F2F"/>
<path d="M6.64355 21.4637C6.64355 20.3348 7.55876 19.4196 8.68772 19.4196H33.7287C34.8577 19.4196 35.7729 20.3348 35.7729 21.4637C35.7729 22.5927 34.8577 23.5079 33.7287 23.5079H8.68772C7.55876 23.5079 6.64355 22.5927 6.64355 21.4637Z" fill="#FD2F2F"/>
<rect x="42.1609" y="19.4196" width="29.1293" height="4.08833" rx="2.04416" fill="#FD2F2F"/>
<path d="M38.2003 29.8959L71.7596 26.127H5.1521L18.653 33.6009L38.2003 29.8959Z" fill="#E2B627"/>
<path d="M27.5426 60.4148C27.5426 67.8236 21.5366 73.8297 14.1278 73.8297C6.71897 73.8297 0.712952 67.8236 0.712952 60.4148C0.712952 53.006 6.71897 47 14.1278 47C21.5366 47 27.5426 53.006 27.5426 60.4148Z" fill="black"/>
<circle cx="63.1278" cy="60.4148" r="13.4148" fill="black"/>
</svg>
