<svg width="43" height="39" viewBox="0 0 43 39" fill="none" xmlns="http://www.w3.org/2000/svg">
<path d="M28.6822 14C28.6822 21.732 22.2615 28 14.3411 28C6.42074 28 0 21.732 0 14C0 6.26801 6.42074 0 14.3411 0C22.2615 0 28.6822 6.26801 28.6822 14ZM3.58528 14C3.58528 19.799 8.40083 24.5 14.3411 24.5C20.2814 24.5 25.097 19.799 25.097 14C25.097 8.20101 20.2814 3.5 14.3411 3.5C8.40083 3.5 3.58528 8.20101 3.58528 14Z" fill="#4CAF50"/>
<path d="M27.95 24.5319C29.0469 23.4445 30.8389 23.4307 31.9524 24.5011L40.0251 32.2613C41.1387 33.3317 41.1521 35.081 40.0552 36.1685C38.9583 37.256 37.1664 37.2698 36.0528 36.1993L27.9801 28.4391C26.8666 27.3687 26.8531 25.6194 27.95 24.5319Z" fill="#4CAF50"/>
</svg>
